<svg width="364" height="54" viewBox="0 0 364 54" fill="none" xmlns="http://www.w3.org/2000/svg">
<path d="M364 15.3438C364 10.941 360.364 7.375 355.875 7.375C351.386 7.375 347.75 10.941 347.75 15.3438C347.75 18.9695 350.218 22.0275 353.59 22.9938C353.529 24.5975 353.163 25.8326 352.473 26.6693C350.909 28.5818 347.466 28.9006 343.82 29.2293C340.955 29.4883 337.99 29.7672 335.562 30.9127V16.5689C338.863 15.5529 341.25 12.5348 341.25 8.96875C341.25 4.56602 337.614 1 333.125 1C328.636 1 325 4.56602 325 8.96875C325 12.5348 327.387 15.5529 330.688 16.5689V36.4211C327.387 37.4471 325 40.4652 325 44.0312C325 48.434 328.636 52 333.125 52C337.614 52 341.25 48.434 341.25 44.0312C341.25 40.6445 339.097 37.7459 336.05 36.6004C336.365 36.0824 336.842 35.6242 337.563 35.2656C339.209 34.4488 341.666 34.2297 344.277 33.9906C348.563 33.6021 353.417 33.1539 356.281 29.6676C357.703 27.9344 358.424 25.7031 358.475 22.9041C361.684 21.8283 364 18.85 364 15.3438ZM333.125 7.375C334.019 7.375 334.75 8.09219 334.75 8.96875C334.75 9.84531 334.019 10.5625 333.125 10.5625C332.231 10.5625 331.5 9.84531 331.5 8.96875C331.5 8.09219 332.231 7.375 333.125 7.375ZM333.125 45.625C332.231 45.625 331.5 44.9078 331.5 44.0312C331.5 43.1547 332.231 42.4375 333.125 42.4375C334.019 42.4375 334.75 43.1547 334.75 44.0312C334.75 44.9078 334.019 45.625 333.125 45.625ZM355.875 13.75C356.769 13.75 357.5 14.4672 357.5 15.3438C357.5 16.2203 356.769 16.9375 355.875 16.9375C354.981 16.9375 354.25 16.2203 354.25 15.3438C354.25 14.4672 354.981 13.75 355.875 13.75Z" fill="black"/>
<path d="M315.734 40.75C316.43 40.75 317 41.3195 317 42.0156V46.2344C317 46.9305 316.43 47.5 315.734 47.5H264.266C263.57 47.5 263 46.9305 263 46.2344V8.26562C263 7.56953 263.57 7 264.266 7H268.484C269.18 7 269.75 7.56953 269.75 8.26562V40.75H315.734ZM302.308 17.0723L293.375 23.0312L284.379 11.0395C283.841 10.3223 282.744 10.375 282.28 11.1449L273.125 26.4062V37.375H313.625L304.143 17.568C303.806 16.8824 302.941 16.6504 302.308 17.0723Z" fill="black"/>
<path d="M250.875 4H215.125C212.847 4 211 6.22455 211 8.96875V45.4062C211 48.1504 212.847 50.375 215.125 50.375H250.875C253.153 50.375 255 48.1504 255 45.4062V8.96875C255 6.22455 253.153 4 250.875 4ZM230.25 43.75H216.5V17.25H230.25V43.75ZM249.5 43.75H235.75V17.25H249.5V43.75Z" fill="black"/>
<path d="M190 14.3438V3.1875C190 1.4271 191.455 0 193.25 0C195.045 0 196.5 1.4271 196.5 3.1875V14.3438H190ZM201.375 15.9375H165.625C164.727 15.9375 164 16.651 164 17.5312V20.7188C164 21.599 164.727 22.3125 165.625 22.3125H167.25V25.5C167.25 33.2104 172.833 39.6416 180.25 41.1184V51H186.75V41.1184C194.167 39.6416 199.75 33.2104 199.75 25.5V22.3125H201.375C202.273 22.3125 203 21.599 203 20.7188V17.5312C203 16.651 202.273 15.9375 201.375 15.9375ZM177 14.3438V3.1875C177 1.4271 175.545 0 173.75 0C171.955 0 170.5 1.4271 170.5 3.1875V14.3438H177Z" fill="black"/>
<path d="M70.6304 44.8206C70.6313 45.3857 70.7984 45.9391 71.112 46.4099L72.6474 48.718C72.9097 49.1126 73.2654 49.4362 73.683 49.66C74.1006 49.8838 74.567 50.001 75.0408 50.001H80.5851C81.0589 50.001 81.5253 49.8838 81.9429 49.66C82.3605 49.4362 82.7162 49.1126 82.9785 48.718L84.5139 46.4099C84.8274 45.9391 84.9949 45.3862 84.9955 44.8206L84.9991 41.3751H70.6259L70.6304 44.8206ZM62 19.8126C62 23.7989 63.4779 27.4358 65.9136 30.2147C67.3978 31.9082 69.7194 35.4463 70.6043 38.4309C70.6079 38.4543 70.6106 38.4776 70.6142 38.501H85.0108C85.0144 38.4776 85.0171 38.4552 85.0207 38.4309C85.9056 35.4463 88.2272 31.9082 89.7114 30.2147C92.1471 27.4358 93.625 23.7989 93.625 19.8126C93.625 11.0627 86.5193 3.97312 77.7631 4.00008C68.5981 4.02793 62 11.4544 62 19.8126ZM77.8125 12.6251C73.8495 12.6251 70.625 15.8496 70.625 19.8126C70.625 20.6068 69.9817 21.2501 69.1875 21.2501C68.3933 21.2501 67.75 20.6068 67.75 19.8126C67.75 14.2638 72.2638 9.75008 77.8125 9.75008C78.6067 9.75008 79.25 10.3934 79.25 11.1876C79.25 11.9818 78.6067 12.6251 77.8125 12.6251Z" fill="black"/>
<path d="M146.107 18.3127C145.538 18.1229 144.968 17.9436 144.398 17.7749C144.493 17.3846 144.578 16.9944 144.662 16.6041C145.959 10.3182 145.105 5.26626 142.226 3.59985C139.452 2.00727 134.927 3.66313 130.35 7.64985C129.896 8.04009 129.454 8.45141 129.032 8.86274C128.747 8.58852 128.452 8.31431 128.156 8.05063C123.357 3.7897 118.548 1.99673 115.669 3.67368C112.905 5.27681 112.083 10.0334 113.243 15.9819C113.359 16.5725 113.486 17.1526 113.633 17.7432C112.958 17.9331 112.294 18.144 111.671 18.3655C106.039 20.3166 102 23.3963 102 26.5815C102 29.8721 106.303 33.1733 112.157 35.1772C112.631 35.3354 113.106 35.4936 113.591 35.6307C113.433 36.2635 113.296 36.8858 113.169 37.5291C112.062 43.3827 112.927 48.0233 115.69 49.6159C118.538 51.2612 123.326 49.5737 127.987 45.492C128.357 45.1651 128.726 44.8276 129.095 44.469C129.559 44.9225 130.044 45.3549 130.529 45.7768C135.043 49.6581 139.505 51.2295 142.257 49.637C145.105 47.9916 146.033 43.003 144.831 36.928C144.736 36.4639 144.63 35.9893 144.514 35.5041C144.852 35.4092 145.179 35.3038 145.506 35.1983C151.591 33.1838 156 29.9249 156 26.5815C156 23.3858 151.845 20.285 146.107 18.3127V18.3127ZM131.837 9.35845C135.761 5.94126 139.42 4.60181 141.087 5.56157C142.869 6.58462 143.555 10.719 142.437 16.1506C142.363 16.5092 142.289 16.8573 142.194 17.2053C139.853 16.678 137.48 16.2983 135.096 16.0874C133.725 14.1256 132.227 12.2483 130.603 10.487C131.014 10.0967 131.415 9.72759 131.837 9.35845V9.35845ZM119.634 32.0553C120.172 32.9729 120.721 33.8905 121.301 34.787C119.655 34.6077 118.021 34.344 116.407 33.9959C116.871 32.4772 117.451 30.9057 118.126 29.3026C118.611 30.2307 119.107 31.1483 119.634 32.0553V32.0553ZM116.439 19.3674C117.957 19.0299 119.571 18.7557 121.248 18.5448C120.689 19.4202 120.141 20.3166 119.624 21.2237C119.107 22.1202 118.601 23.0377 118.126 23.9659C117.462 22.3944 116.903 20.8545 116.439 19.3674ZM119.329 26.6342C120.025 25.1788 120.784 23.7549 121.586 22.3522C122.387 20.9495 123.252 19.5889 124.159 18.2495C125.741 18.1334 127.355 18.0702 129 18.0702C130.645 18.0702 132.27 18.1334 133.841 18.2495C134.737 19.5784 135.592 20.9389 136.404 22.3311C137.216 23.7233 137.975 25.1471 138.693 26.592C137.986 28.0475 137.227 29.4819 136.414 30.8952C135.613 32.2979 134.759 33.6584 133.862 35.0084C132.291 35.1245 130.656 35.1772 129 35.1772C127.344 35.1772 125.741 35.1245 124.191 35.0295C123.273 33.6901 122.408 32.319 121.596 30.9163C120.784 29.5135 120.035 28.0897 119.329 26.6342ZM138.376 32.0342C138.914 31.1061 139.42 30.1674 139.916 29.2182C140.591 30.7475 141.182 32.2979 141.698 33.8905C140.064 34.2596 138.408 34.5444 136.741 34.7342C137.311 33.8483 137.849 32.9413 138.376 32.0342ZM139.895 23.9659C139.399 23.0377 138.893 22.1096 138.366 21.2026C137.849 20.3061 137.311 19.4202 136.752 18.5448C138.45 18.7557 140.074 19.0405 141.593 19.3885C141.108 20.9495 140.538 22.4682 139.895 23.9659V23.9659ZM129.021 12.1006C130.129 13.303 131.173 14.5686 132.143 15.8764C130.055 15.7815 127.956 15.7815 125.868 15.8764C126.901 14.5159 127.966 13.2502 129.021 12.1006ZM116.787 5.6354C118.559 4.60181 122.493 6.07837 126.638 9.74868C126.901 9.98071 127.165 10.2338 127.439 10.487C125.804 12.2483 124.296 14.1256 122.914 16.0874C120.531 16.2983 118.168 16.6674 115.827 17.1842C115.69 16.6463 115.574 16.0979 115.458 15.5495C114.466 10.4448 115.12 6.59517 116.787 5.6354V5.6354ZM114.203 33.437C113.76 33.3104 113.327 33.1733 112.895 33.0256C110.648 32.319 108.096 31.201 106.25 29.735C105.185 28.9967 104.468 27.8577 104.268 26.5815C104.268 24.6514 107.6 22.1834 112.41 20.5065C113.011 20.2956 113.623 20.1057 114.234 19.9264C114.952 22.2151 115.816 24.4616 116.818 26.6342C115.806 28.8385 114.93 31.1166 114.203 33.437V33.437ZM126.5 43.7729C124.76 45.3655 122.746 46.6311 120.552 47.4959C119.381 48.0549 118.031 48.1077 116.829 47.6331C115.152 46.6627 114.456 42.9397 115.405 37.9299C115.521 37.3393 115.648 36.7487 115.795 36.1686C118.158 36.6748 120.541 37.0229 122.957 37.2022C124.349 39.1745 125.878 41.0624 127.513 42.8342C127.175 43.1612 126.838 43.4776 126.5 43.7729ZM129.084 41.21C128.009 40.0498 126.933 38.7631 125.889 37.3815C126.901 37.4237 127.945 37.4448 129 37.4448C130.086 37.4448 131.152 37.4237 132.206 37.3709C131.236 38.7104 130.192 39.9866 129.084 41.21V41.21ZM142.869 44.3741C142.774 45.6608 142.141 46.8631 141.129 47.6752C139.452 48.6456 135.877 47.3799 132.016 44.0682C131.573 43.6885 131.13 43.2772 130.677 42.8553C132.291 41.0729 133.778 39.185 135.128 37.2022C137.543 37.0018 139.948 36.6327 142.321 36.0948C142.426 36.5272 142.521 36.9596 142.605 37.3815C143.122 39.6596 143.207 42.0327 142.869 44.3741V44.3741ZM144.789 33.0362C144.493 33.1311 144.198 33.226 143.892 33.3104C143.154 31.0112 142.247 28.7647 141.203 26.5815C142.215 24.4299 143.07 22.2151 143.787 19.9475C144.335 20.1057 144.863 20.2745 145.369 20.4432C150.284 22.1307 153.732 24.6409 153.732 26.5604C153.732 28.6276 150.052 31.2959 144.789 33.0362ZM129 31.4541C131.668 31.4541 133.83 29.292 133.83 26.6237C133.83 23.9553 131.668 21.7932 129 21.7932C126.332 21.7932 124.17 23.9553 124.17 26.6237C124.17 29.292 126.332 31.4541 129 31.4541Z" fill="black"/>
<path d="M27.0117 25.9411C25.6142 25.9411 24.4804 27.0738 24.4804 28.4723C24.6006 36.0925 23.6219 43.4384 21.5589 50.7843C21.271 51.8094 21.7857 54 23.9974 54C25.1027 54 26.1183 53.2702 26.4326 52.1522C27.8596 47.0992 29.7064 38.9253 29.5419 28.4723C29.5429 27.0749 28.4102 25.9411 27.0117 25.9411V25.9411ZM26.921 17.3211C20.4599 17.3137 15.9512 22.2855 16.0408 27.983C16.1199 33.0391 15.6453 38.0985 14.6307 43.0175C14.347 44.3865 15.2287 45.727 16.5966 46.0086C17.973 46.2902 19.304 45.4117 19.5877 44.0427C20.6783 38.7598 21.1877 33.3292 21.1033 27.9039C21.0601 25.1669 23.2042 22.3678 26.8461 22.3836C30.1483 22.4332 32.8736 25.0562 32.9232 28.234C33.0044 33.3018 32.6268 38.3938 31.8042 43.374C31.5753 44.7514 32.5097 46.055 33.8882 46.2828C35.9944 46.6341 36.7158 44.6903 36.7971 44.1977C37.6703 38.9211 38.069 33.5232 37.9857 28.1549C37.8929 22.2697 32.9295 17.4097 26.921 17.3211V17.3211ZM15.2466 15.235C14.1603 14.3553 12.5709 14.5178 11.686 15.602C8.98389 18.9243 7.53159 23.1198 7.59909 27.4145C7.66131 31.378 7.33858 35.3531 6.63827 39.2323C6.39147 40.6086 7.30377 41.9249 8.68014 42.1738C10.8011 42.5429 11.5352 40.6118 11.6217 40.1319C12.38 35.93 12.7291 31.6248 12.6616 27.3354C12.612 24.184 13.6319 21.2309 15.6147 18.7956C16.4954 17.7114 16.3308 16.1177 15.2466 15.235ZM26.7923 8.66109C25.167 8.61784 23.5365 8.81296 21.9639 9.18527C20.6044 9.508 19.7628 10.8707 20.0834 12.2323C20.4062 13.5918 21.7709 14.4292 23.1304 14.1128C24.2958 13.8375 25.5003 13.7151 26.7164 13.7236C34.6719 13.8428 41.2426 20.2099 41.3639 27.9176C41.4261 31.9127 41.2288 35.9448 40.7753 39.902C40.6171 41.291 41.6138 42.5471 43.0018 42.7053C44.7652 42.911 45.6923 41.4524 45.8051 40.4789C46.2844 36.2832 46.4919 32.0609 46.4264 27.8385C46.2618 17.4234 37.4541 8.81929 26.7923 8.66109V8.66109ZM53.3778 21.4703C53.0762 20.1076 51.742 19.2343 50.3603 19.5434C48.9956 19.845 48.1328 21.195 48.4345 22.5608C48.9312 24.8189 48.9523 26.5064 48.9302 29.0577C48.9186 30.4573 50.0429 31.5984 51.4403 31.61H51.4614C52.8505 31.61 53.9811 30.491 53.9927 29.0999C54.0117 26.7606 54.0349 24.4477 53.3778 21.4703ZM49.1464 11.9021C44.0101 4.58366 35.6053 0.136048 26.6626 0.00210242C19.3019 -0.0864913 12.4939 2.62722 7.43034 7.69288C2.53975 12.5898 -0.0959133 19.0941 0.0137742 26.0139L0.00111797 28.2783C-0.0400148 29.6757 1.05897 30.8422 2.45643 30.8823C2.48069 30.8844 2.50706 30.8844 2.53237 30.8844C3.89502 30.8844 5.02038 29.7981 5.06045 28.427L5.07733 25.9337C4.98979 20.3966 7.09811 15.1907 11.0131 11.2735C15.1011 7.18136 20.6466 4.98023 26.5887 5.06566C33.9135 5.17429 40.7985 8.81613 45.0057 14.8099C45.8083 15.9553 47.3851 16.2285 48.5304 15.428C49.6737 14.6243 49.9501 13.0454 49.1464 11.9021V11.9021Z" fill="black"/>
</svg>
